<?xml version="1.0" encoding="UTF-8" standalone="no"?>
<svg
   xmlns:dc="http://purl.org/dc/elements/1.1/"
   xmlns:cc="http://creativecommons.org/ns#"
   xmlns:rdf="http://www.w3.org/1999/02/22-rdf-syntax-ns#"
   xmlns:svg="http://www.w3.org/2000/svg"
   xmlns="http://www.w3.org/2000/svg"
   xmlns:sodipodi="http://sodipodi.sourceforge.net/DTD/sodipodi-0.dtd"
   xmlns:inkscape="http://www.inkscape.org/namespaces/inkscape"
   id="svg3510"
   xml:space="preserve"
   enable-background="new 0 0 1000 1000"
   viewBox="0 0 66.904885 65.391205"
   y="0px"
   x="0px"
   version="1.1"
   inkscape:version="0.91 r13725"
   sodipodi:docname="corn.svg"
   width="66.904884"
   height="65.391205"><sodipodi:namedview
     pagecolor="#ffffff"
     bordercolor="#666666"
     borderopacity="1"
     objecttolerance="10"
     gridtolerance="10"
     guidetolerance="10"
     inkscape:pageopacity="0"
     inkscape:pageshadow="2"
     inkscape:window-width="1920"
     inkscape:window-height="1017"
     id="namedview71"
     showgrid="false"
     inkscape:zoom="1"
     inkscape:cx="-0.14358126"
     inkscape:cy="17.747308"
     inkscape:window-x="0"
     inkscape:window-y="30"
     inkscape:window-maximized="1"
     inkscape:current-layer="g3516"
     fit-margin-top="0"
     fit-margin-left="0"
     fit-margin-right="0"
     fit-margin-bottom="0" /><defs
     id="defs3644" /><metadata
     id="metadata3512"> Svg Vector Icons : http://www.onlinewebfonts.com/icon <rdf:RDF><cc:Work
     rdf:about=""><dc:format>image/svg+xml</dc:format><dc:type
       rdf:resource="http://purl.org/dc/dcmitype/StillImage" /><dc:title></dc:title></cc:Work></rdf:RDF></metadata><g
     id="g3514"
     transform="matrix(0.70710678,-0.70710678,0.70710678,0.70710678,-609.33907,57.408057)"><g
       id="g3516"
       transform="matrix(0.1,0,0,-0.1,0,512)"><path
         id="path3544"
         d="m 4899.9477,969.96286 c -11.4605,-7.63957 -39.051,-21.50715 -57.915,-29.05612 -53.2638,-21.53697 -125.0166,-37.22597 -193.445,-42.44454 -7.8159,-0.52548 -34.9183,-1.90277 -60.1015,-2.96846 -65.9939,-2.77396 -94.1193,-4.36023 -110.6615,-6.32526 -40.7083,-5.05978 -73.2747,-15.79294 -100.2477,-33.31324 -11.355,-7.33175 -29.7991,-25.44936 -37.2909,-36.42699 -5.4661,-8.33766 -5.6716,-8.94798 -5.8387,-25.39922 l -0.065,-16.9548 25.9069,-7.76283 25.9071,-7.76281 22.4256,6.03439 c 67.1823,17.80602 143.0963,34.42121 206.8404,45.30983 69.74,12.03081 111.0369,24.60129 161.144,49.28178 48.7876,24.1633 96.2347,60.41536 117.8997,90.31305 9.8203,13.3266 14.5774,20.95215 13.7643,21.76185 -0.4092,0.3969 -4.1652,-1.53608 -8.3225,-4.28663 z"
         inkscape:connector-curvature="0" /><path
         id="path3530"
         d="m 5091.1027,833.15574 c -7.2136,2.68227 -22.6486,1.44103 -26.8029,-2.13428 -0.9103,-0.78339 -1.8139,-6.44359 -1.9,-12.44773 -0.2796,-9.31329 0.2344,-11.31219 3.285,-13.91558 2.9494,-2.51719 5.3848,-3.0355 14.4273,-3.10563 15.13,0.11355 17.866,2.46821 17.727,15.95763 -0.3236,10.87118 -1.4492,13.56435 -6.7364,15.64559 z"
         inkscape:connector-curvature="0" /><path
         id="path3552"
         d="m 5080.2294,753.51163 c -15.1301,-0.11355 -17.8661,-2.4682 -17.6261,-16.04382 0.018,-5.39491 0.8382,-10.96567 1.7588,-12.26845 4.0732,-6.60572 28.4463,-6.21654 32.19,0.4941 0.7078,1.12845 1.3045,6.52449 1.3918,12.01051 0.2645,13.31744 -2.584,15.74847 -17.7145,15.80766 z"
         inkscape:connector-curvature="0" /><path
         id="path3538"
         d="m 5045.6032,838.46902 c -9.0438,2.85624 -23.9671,0.6524 -26.4909,-3.96082 -1.6209,-2.96171 -2.5021,-15.58035 -1.3693,-21.23688 1.3389,-7.56509 4.3869,-9.13221 17.6877,-9.19014 15.7347,0.1146 18.27,2.1235 18.7474,15.08682 0.1808,8.52682 -1.056,15.4876 -3.2929,17.22435 -0.5045,0.25815 -2.8403,1.20841 -5.282,2.07667 z"
         inkscape:connector-curvature="0" /><path
         id="path3560"
         d="m 5035.5544,753.43146 c -15.5331,-0.1143 -17.8665,-2.29551 -17.7276,-17.87112 0.038,-15.31671 2.1743,-17.3127 17.6072,-17.45772 9.5464,-0.15557 11.4757,0.28423 14.9157,3.24465 3.4452,2.96503 3.9502,4.62033 3.9264,14.36484 -0.1245,9.658 -0.537,11.398 -3.9966,14.35063 -3.3482,2.86646 -5.4812,3.29895 -14.7251,3.36872 z"
         inkscape:connector-curvature="0" /><path
         id="path3548"
         d="m 4988.6272,843.85263 c -11.2692,-0.10665 -13.2996,-0.46019 -16.7448,-3.42521 -3.4452,-2.96502 -3.8493,-4.70647 -3.9243,-15.23746 0.126,-10.53065 0.5391,-12.27065 3.9987,-15.22326 3.4598,-2.95262 5.4918,-3.29894 16.7615,-3.36507 17.9727,0.11865 19.5969,1.68957 19.6563,18.65632 -0.147,16.97093 -1.7742,18.54059 -19.7474,18.59468 z"
         inkscape:connector-curvature="0" /><path
         id="path3568"
         d="m 5000.634,752.67339 c -1.6293,0.51975 -7.9253,0.85842 -13.8114,0.67513 -9.344,-0.18948 -11.676,-0.80269 -14.8196,-3.50809 -3.3445,-2.87847 -3.8493,-4.70649 -3.8238,-15.15095 0.026,-10.78987 0.4382,-12.18448 4.2008,-15.39559 6.8184,-5.81907 26.4138,-5.69753 33.4048,0.31902 2.1275,1.83091 2.829,5.5773 2.8056,15.14911 -0.132,12.96678 -1.1566,15.40107 -7.9564,17.91137 z"
         inkscape:connector-curvature="0" /><path
         id="path3564"
         d="m 4890.1144,854.11576 c -10.3521,-0.0186 -12.3819,-0.5449 -15.7266,-3.42339 -3.5458,-3.05152 -3.8493,-4.70647 -3.918,-17.84631 0.033,-13.57143 0.3435,-14.70712 4.4144,-18.18133 3.8689,-3.30183 5.4925,-3.64436 15.0385,-3.62721 17.7714,-0.0544 21.5157,4.21551 21.0597,23.70838 -0.3288,10.87569 -0.7405,12.27027 -4.705,15.65375 -3.8795,3.30184 -5.4027,3.73089 -16.163,3.71611 z"
         inkscape:connector-curvature="0" /><path
         id="path3584"
         d="m 4890.361,753.17083 c -10.3519,-0.0186 -12.3871,-0.54036 -15.7318,-3.41883 -3.5457,-3.05154 -3.8493,-4.7065 -3.918,-17.84632 0.032,-13.0533 0.4446,-14.79332 3.9042,-17.74592 3.2577,-2.78026 5.4916,-3.29895 15.6426,-3.45342 10.867,-0.23956 11.9854,0.0216 16.2403,3.68336 4.4561,3.83491 4.5549,4.62138 4.6293,17.58399 -0.132,12.79404 -0.3414,13.83447 -4.5132,17.39485 -3.9699,3.38802 -5.392,3.73998 -16.2534,3.80229 z"
         inkscape:connector-curvature="0" /><path
         id="path3572"
         d="m 4841.3772,854.02828 c -9.6465,-0.10365 -12.4826,-0.63144 -15.2186,-2.98614 -4.456,-3.83491 -6.0684,-10.27813 -5.3281,-22.37571 0.6319,-9.04804 1.1446,-10.52881 5.1093,-13.91229 4.0707,-3.47419 5.4928,-3.81706 15.5428,-3.88539 10.0496,0.1044 11.4753,0.45693 15.5238,3.94115 3.9533,3.40224 4.554,4.96683 5.1452,12.62626 0.6807,12.27285 -1.0614,19.83722 -5.3342,23.48375 -3.0558,2.60793 -5.4913,3.12622 -15.4402,3.10837 z"
         inkscape:connector-curvature="0" /><path
         id="path3592"
         d="m 4841.6185,753.08788 c -10.3521,-0.0186 -12.3819,-0.54489 -15.7266,-3.42336 -3.5457,-3.05155 -3.8493,-4.70647 -3.918,-17.84632 0.1335,-13.13948 0.4446,-14.7933 4.0052,-17.83211 3.3588,-2.86642 5.3911,-3.38545 15.7432,-3.36687 10.6647,0.10545 12.2867,0.45381 16.0388,3.683 3.7468,3.22461 4.1514,4.79337 4.5355,14.7159 0.7577,19.845 -2.9119,24.01077 -20.6781,24.06976 z"
         inkscape:connector-curvature="0" /><path
         id="path3590"
         d="m 4743.457,825.74145 c -10.4494,-3.58208 -19.0749,-6.99725 -19.0683,-7.51992 0.015,-2.78156 7.6323,-6.85841 13.8281,-7.45631 16.6561,-1.53361 24.8653,2.9171 25.4542,13.70807 0.1926,3.65455 0.084,6.87682 -0.3199,7.22151 -0.404,0.3447 -9.3443,-2.27567 -19.8941,-5.95335 z"
         inkscape:connector-curvature="0" /><path
         id="path3606"
         d="m 4744.4518,752.82258 c -17.4642,0.14595 -20.6068,-2.90492 -20.9695,-19.44042 -0.4613,-19.58087 3.0058,-23.40156 21.1792,-22.93718 9.9485,0.19058 12.1799,0.71727 15.4241,3.50921 3.4452,2.965 3.8493,4.70646 3.8173,17.75977 -0.032,13.0533 -0.4444,14.7933 -3.9042,17.74592 -3.3639,2.86189 -5.4969,3.29439 -15.5469,3.3627 z"
         inkscape:connector-curvature="0" /><path
         id="path3602"
         d="m 4703.7856,813.75312 c -10.5516,-2.97774 -10.7527,-3.15081 -7.1988,-3.40805 4.2647,-0.33777 11.8749,1.84842 13.392,3.85551 0.7083,0.95573 -1.9323,0.77828 -6.1932,-0.44746 z"
         inkscape:connector-curvature="0" /><path
         id="path3540"
         d="m 5080.1304,797.32782 c -9.2439,0.0845 -12.4869,-1.18761 -16.2312,-6.35468 -0.7088,-0.94753 -1.4069,-7.16397 -1.3991,-13.69237 -0.1801,-10.52726 0.333,-12.52812 3.7926,-16.10106 3.2577,-3.3644 5.2902,-3.99248 13.9185,-3.86922 8.4272,-0.0862 10.6586,0.55113 13.9026,3.92962 3.2441,3.37853 3.7488,5.59059 3.8285,16.01313 0.08,10.63155 -0.4338,12.6324 -3.8936,16.20536 -3.2524,3.36987 -5.2848,3.99798 -13.9183,3.86922 z"
         inkscape:connector-curvature="0" /><path
         id="path3550"
         d="m 5036.8716,799.76382 c -17.1626,0.49071 -19.496,-2.14883 -19.25,-21.52454 0.123,-11.0601 0.6375,-13.68796 3.789,-16.94256 4.3737,-4.51695 16.1553,-5.97084 24.0725,-3.00567 4.6687,1.69859 5.4784,2.54184 7.1934,6.86304 1.0126,2.74116 1.8039,10.11278 1.5895,16.42623 -0.5293,15.26669 -2.9739,17.79132 -17.3944,18.1835 z"
         inkscape:connector-curvature="0" /><path
         id="path3558"
         d="m 4988.7379,802.82173 c -11.2693,-0.129 -13.2996,-0.55686 -16.7448,-4.14481 -3.4452,-3.58794 -3.8493,-5.69529 -3.9244,-18.4388 0.1305,-12.31957 0.6402,-14.95293 3.6906,-18.10326 6.7174,-6.93733 27.1251,-7.21201 33.7138,-0.35028 2.3286,2.42504 3.0366,6.32601 3.0068,18.54131 -0.1425,20.53095 -1.769,22.43037 -19.742,22.49584 z"
         inkscape:connector-curvature="0" /><path
         id="path3574"
         d="m 4890.2325,807.44899 c -10.3521,-0.0217 -12.3819,-0.64078 -15.7266,-4.02568 -3.5459,-3.58842 -3.8493,-5.53455 -3.918,-20.98623 0.034,-14.53215 0.5455,-17.4974 3.394,-20.35616 6.9194,-6.94419 25.7046,-7.41763 32.1876,-0.85668 4.6623,4.71852 5.1609,7.27968 4.9257,23.44157 -0.3288,12.78919 -0.7405,14.42913 -4.705,18.40791 -3.869,3.89347 -5.3921,4.398 -16.1577,4.37527 z"
         inkscape:connector-curvature="0" /><path
         id="path3582"
         d="m 4841.4952,807.34612 c -9.6465,-0.12195 -12.4878,-0.7479 -15.2238,-3.51687 -4.456,-4.50964 -5.7622,-11.36965 -4.8193,-26.20456 1.0486,-17.1917 3.6952,-19.84778 19.9453,-20.21967 10.6602,-0.28748 12.086,0.12705 16.034,4.12254 3.948,3.99549 4.4535,5.73894 4.7367,17.50855 0.7627,23.34192 -2.9013,28.24598 -20.6729,28.31001 z"
         inkscape:connector-curvature="0" /><path
         id="path3596"
         d="m 4744.3233,807.03946 c -11.0682,0.0782 -12.5892,-0.43276 -16.442,-4.33183 -4.0537,-4.10259 -4.3528,-5.63717 -4.6321,-19.24536 -0.1635,-15.76187 1.8763,-22.51328 7.6729,-25.05581 1.8312,-0.81387 8.3291,-1.41481 14.3163,-1.3006 9.1367,0.43081 11.5749,1.04527 14.7185,4.22665 3.2442,3.28314 3.7483,5.63588 3.8196,19.85828 0.1726,13.91797 -0.3369,16.6801 -3.6021,20.97036 -3.5633,4.8027 -4.0673,4.9032 -15.8511,4.87831 z"
         inkscape:connector-curvature="0" /><path
         id="path3604"
         d="m 4705.945,806.14071 c -1.5288,0.71298 -7.4163,1.10674 -12.8946,1.10053 -8.8297,-0.12015 -10.6581,-0.7387 -14.3044,-4.42888 -3.9533,-4.00085 -4.2524,-5.53539 -4.2206,-20.88531 0.1335,-15.45125 0.3378,-17.08632 4.2068,-20.96907 3.7626,-3.77612 5.2906,-4.08288 16.4589,-3.85622 17.3623,0.34665 20.3031,4.1369 19.8496,25.83009 -0.2457,16.16186 -1.8771,20.25245 -9.0957,23.20886 z"
         inkscape:connector-curvature="0" /><path
         id="path3612"
         d="m 4695.2001,752.82052 c -11.1692,0.1527 -12.6906,-0.1092 -16.4429,-3.33829 -3.8526,-3.31571 -4.0507,-4.70685 -4.0185,-17.93286 0.032,-13.22601 0.2373,-14.61642 4.1061,-17.91827 3.7626,-3.21114 5.2907,-3.47202 16.4537,-3.27472 17.3623,0.29478 20.3031,3.51795 19.8496,21.96546 -0.3405,17.83413 -2.7807,20.27044 -19.948,20.49868 z"
         inkscape:connector-curvature="0" /><path
         id="path3610"
         d="m 4658.0196,802.2675 c -1.0142,0.52084 -8.2251,-0.1011 -16.0391,-1.42413 -16.036,-2.64219 -16.237,-2.81526 -17.0179,-15.34733 -0.7803,-12.7048 1.162,-19.75068 6.1435,-22.61422 5.7942,-3.38474 26.4071,-2.91596 30.5613,0.65937 6.5888,5.6704 6.4232,32.2086 -0.2916,36.89611 -0.8127,0.53031 -2.2362,1.4004 -3.3562,1.8302 z"
         inkscape:connector-curvature="0" /><path
         id="path3618"
         d="m 4658.143,751.79956 c -3.9603,1.64729 -22.95,0.99962 -26.1913,-0.74241 -5.169,-2.88174 -6.4844,-7.14736 -6.2453,-20.37753 0.3459,-17.83867 2.6904,-20.18425 21.0669,-20.41033 16.3508,-0.22973 20.2958,4.38603 19.6452,23.18316 -0.4363,11.48454 -2.484,16.00773 -8.2755,18.34711 z"
         inkscape:connector-curvature="0" /><path
         id="path3626"
         d="m 4694.2813,657.81403 c -0.4075,-0.40921 -0.6969,-6.59878 -0.6814,-13.91731 0.15,-23.45627 -7.8156,-51.39488 -21.1682,-74.77332 -6.3778,-11.08139 -9.1072,-14.43878 -23.8989,-29.29251 -14.0826,-14.14163 -18.3441,-17.80452 -26.962,-22.80239 -5.5778,-3.15654 -10.2437,-6.21573 -10.3433,-6.71974 0.1035,-1.52184 19.9109,-3.61227 32.9036,-3.38355 25.2801,0.35523 43.7463,7.9087 59.9616,24.192 11.6533,11.70231 17.8248,22.57644 20.9388,37.31023 6.438,30.47573 -0.2187,56.35787 -20.5784,79.25735 -5.2891,5.87029 -9.8701,10.43217 -10.1718,10.12924 z"
         inkscape:connector-curvature="0" /><path
         id="path3628"
         d="m 4669.5696,674.71696 c -23.5844,12.94371 -60.98,26.4737 -98.4612,35.43204 -10.8719,2.51753 -42.3609,9.14964 -70.0929,14.67594 -55.6655,11.0522 -101.079,21.82359 -139.8863,33.31944 -14.0202,4.2345 -25.7046,7.36019 -26.1121,6.95099 -0.3017,-0.30293 -0.6768,-16.14471 -0.5364,-35.13557 l 0.072,-34.52443 10.5876,-11.14658 c 13.4316,-14.39157 28.3815,-24.41005 49.8256,-33.40198 29.879,-12.73431 64.3107,-19.05798 135.8066,-25.00178 43.9722,-3.66262 83.7901,-9.06286 120.9655,-16.29826 13.2054,-2.60811 24.5844,-4.21239 25.1882,-3.80807 1.9263,1.93445 6.339,27.1238 6.52,36.87167 0.078,10.66513 -1.7796,24.26424 -3.6073,25.88322 -0.6113,0.61923 -5.1831,3.35145 -10.2696,6.18337 z"
         inkscape:connector-curvature="0" /><path
         inkscape:connector-curvature="0"
         id="path3622"
         d="m 4546.8754,789.60552 -19.7887,-4.00305 0.3264,-9.03615 c 0.436,-13.19901 3.9958,-20.37839 19.3282,-20.64857 17.2631,-0.37221 21.1158,7.53335 21.1781,25.90946 -0.015,5.68512 -0.2241,10.76524 -0.6279,11.16744 -0.3189,0.30694 -9.554,-1.23978 -20.4161,-3.38913 z"
         sodipodi:nodetypes="ccccccc" /><path
         inkscape:connector-curvature="0"
         id="path3630"
         d="m 4560.9768,749.2185 c -1.3226,0.9147 -7.8257,1.50565 -14.2158,1.39152 -14.1114,-0.33186 -18.5754,-3.59214 -19.164,-13.74923 l -0.3956,-6.09432 11.4816,-2.51092 c 6.2981,-1.4028 15.4452,-3.42012 20.4167,-4.5287 l 8.8393,-1.9119 0.185,7.92353 c 0.087,6.6028 -2.268,16.85449 -3.993,17.55622 -0.3078,0.10545 -1.7361,0.91383 -3.1542,1.9238 z" /><path
         inkscape:connector-curvature="0"
         id="path3632"
         d="m 4499.1783,779.14294 c -10.3523,-2.4559 -19.2833,-4.91944 -19.8866,-5.52528 -1.6194,-1.62619 0.2156,-6.70294 3.8772,-10.34925 2.5457,-2.53495 5.6919,-5.92482 15.0315,-6.11208 10.6602,-0.28525 12.086,2.81718 16.034,6.78173 3.4452,3.45967 4.4583,5.90131 4.8502,11.18424 0.1992,3.65439 -0.015,7.10641 -0.424,7.5139 -0.4092,0.40751 -9.236,-1.13305 -19.4823,-3.49326 z"
         sodipodi:nodetypes="csscsccc" /><path
         inkscape:connector-curvature="0"
         id="path3634"
         d="m 4498.4268,750.50878 c -9.3444,-0.0195 -12.4826,-0.73678 -15.0174,-3.28239 -6.7899,-6.81837 -6.3807,-7.22586 15.4563,-11.33793 l 20.6223,-3.91837 -0.4191,5.07438 c -0.315,3.55257 -1.7423,6.39216 -4.5908,9.22876 -3.7678,3.75216 -5.3968,4.1571 -16.0513,4.23555 z" /><path
         id="path3640"
         d="m 4309.4781,812.12113 -15.1706,-20.03554 0.061,-57.46643 4.8183,-17.77969 10.5189,-19.44395 14.6976,0.0604 -0.061,57.46644 -0.065,57.25961 -14.8003,-0.0607 z"
         inkscape:connector-curvature="0"
         sodipodi:nodetypes="cccccccccc" /><rect
         transform="matrix(0,-1,-1,0,0,0)"
         y="-4453.8174"
         x="-766.26996"
         height="7.061902"
         width="20.220688"
         id="rect4054-36"
         style="fill:#000000;stroke:#000000;stroke-width:1.14098585" /><rect
         transform="matrix(0,-1,-1,0,0,0)"
         y="-4601.7646"
         x="-797.69208"
         height="5.947999"
         width="82.357666"
         id="rect4054-0"
         style="fill:#000000;stroke:#000000;stroke-width:2.11328888" /><rect
         transform="matrix(0,-1,-1,0,0,0)"
         y="-4795.187"
         x="-840.28479"
         height="5.0730534"
         width="211.80234"
         id="rect4054-36-6-2-1"
         style="fill:#000000;stroke:#000000;stroke-width:3.12983561" /><rect
         transform="matrix(0,-1,-1,0,0,0)"
         y="-4942.6343"
         x="-844.74493"
         height="5.0746336"
         width="211.52266"
         id="rect4054-36-6-2-1-2"
         style="fill:#000000;stroke:#000000;stroke-width:3.12825584" /><rect
         transform="matrix(0,-1,-1,0,0,0)"
         y="-5126.0659"
         x="-803.32294"
         height="5.7192135"
         width="118.30703"
         id="rect4054-36-6-2-1-0"
         style="fill:#000000;stroke:#000000;stroke-width:2.48367596" /><rect
         transform="matrix(0,-1,-1,0,0,0)"
         y="-4747.5054"
         x="-701.30908"
         height="6.2817497"
         width="73.522858"
         id="rect4054-36-6-2"
         style="fill:#000000;stroke:#000000;stroke-width:2.0519793" /><rect
         transform="matrix(0,-1,-1,0,0,0)"
         y="-4699.022"
         x="-701.08459"
         height="7.0305996"
         width="24.433296"
         id="rect4054-36-6-2-6"
         style="fill:#000000;stroke:#000000;stroke-width:1.251436" /><rect
         transform="matrix(0,-1,-1,0,0,0)"
         y="-4845.8369"
         x="-701.21899"
         height="6.288507"
         width="72.92778"
         id="rect4054-36-6-2-8"
         style="fill:#000000;stroke:#000000;stroke-width:2.04475689" /><rect
         transform="matrix(0,-1,-1,0,0,0)"
         y="-4894.252"
         x="-701.02344"
         height="6.2875109"
         width="73.015381"
         id="rect4054-36-6-2-7"
         style="fill:#000000;stroke:#000000;stroke-width:2.04582262" /><rect
         transform="matrix(0,-1,-1,0,0,0)"
         y="-4992.5176"
         x="-705.01917"
         height="6.39466"
         width="63.977657"
         id="rect4054-36-6-2-9"
         style="fill:#000000;stroke:#000000;stroke-width:1.93127596" /><rect
         transform="matrix(0,-1,-1,0,0,0)"
         y="-5039.0366"
         x="-709.38983"
         height="6.4091163"
         width="62.815876"
         id="rect4054-36-6-2-9-2"
         style="fill:#000000;stroke:#000000;stroke-width:1.91582251" /><rect
         transform="matrix(0,-1,-1,0,0,0)"
         y="-5084.2759"
         x="-713.15143"
         height="6.4603691"
         width="58.803947"
         id="rect4054-36-6-2-9-2-3"
         style="fill:#000000;stroke:#000000;stroke-width:1.86103034" /></g></g></svg>